<?xml version="1.0" encoding="utf-8"?>
<!-- Generator: Adobe Illustrator 19.0.0, SVG Export Plug-In . SVG Version: 6.00 Build 0)  -->
<svg version="1.1" id="Capa_1" xmlns="http://www.w3.org/2000/svg" xmlns:xlink="http://www.w3.org/1999/xlink" x="0px" y="0px"
	 viewBox="-288 411.9 17.7 18" style="enable-background:new -288 411.9 17.7 18;" xml:space="preserve">
<style type="text/css">
	.st0{display:none;fill:#494C6B;}
	.st1{fill:#494C6B;}
</style>
<path class="st0" d="M-559,823.8l0.7,0.7l-8.1,8.1l8.1,8.1l-0.7,0.7l-8.1-8.1l-8.1,8.1l-0.7-0.7l8.1-8.1l-8.1-8.1l0.7-0.7l8.1,8.1
	L-559,823.8L-559,823.8z"/>
<g>
	<path class="st1" d="M-282.2,420.4L-282.2,420.4L-282.2,420.4l-0.1,0.1l0,0l0,0l-1.2,4.4c0,0.2,0,0.4,0.1,0.5s0.2,0.1,0.4,0.1h0.1
		l4.2-1.1h0.1c0.1,0,0.3,0,0.4-0.1l6.8-6.8c0.4-0.4,0.6-0.8,0.6-1.4s-0.2-1-0.6-1.4l-1.2-1.2c-0.7-0.7-2-0.7-2.7,0L-282.2,420.4
		L-282.2,420.4z M-274.7,414.3c0.3-0.3,1-0.3,1.3,0l1.2,1.2c0.2,0.2,0.3,0.4,0.3,0.7s-0.1,0.5-0.3,0.7l-0.4,0.4l-2.5-2.5
		L-274.7,414.3z M-275.7,415.4l2.5,2.5l-5.4,5.4l-2.5-2.5L-275.7,415.4z M-281.4,421.9l1.8,1.8l-2.7,0.7l0.7-2.7L-281.4,421.9z"/>
	
		<rect x="-277.6" y="416.9" transform="matrix(0.7072 0.707 -0.707 0.7072 215.1978 318.5921)" class="st1" width="1" height="4.5"/>
	<path class="st1" d="M-286.8,428.9h13.5c1.1,0,1.9-0.9,1.9-1.9v-6.8h-1v6.8c0,0.5-0.4,0.9-0.9,0.9h-13v-13.3h8.6v-1h-9.1
		c-0.3,0-0.5,0.2-0.5,0.5v14.3C-287.3,428.7-287.1,428.9-286.8,428.9z"/>
</g>
</svg>
